# MagicaVoxel @ Ephtracy

# group
o water

# material
mtllib city_builder-2-water.mtl
usemtl palette

# normals
vn -1 0 0
vn 1 0 0
vn 0 0 1
vn 0 0 -1
vn 0 -1 0
vn 0 1 0

# texcoords
vt 0.544922 0.5
vt 0.568359 0.5

# verts
v -6.8 0 -4.9
v -6.8 0 -8.9
v -6.8 0.1 -4.9
v -6.8 0.1 -8.9
v -6.2 0.1 -7.2
v -6.2 0.1 -7.5
v -6.2 0.2 -7.2
v -6.2 0.2 -7.5
v -6.1 0.1 -7.5
v -6.1 0.1 -7.7
v -6.1 0.2 -7.5
v -6.1 0.2 -7.7
v -5.2 0.1 -7.8
v -5.2 0.1 -8
v -5.2 0.2 -7.8
v -5.2 0.2 -8
v -5.1 0.1 -8
v -5.1 0.1 -8.3
v -5.1 0.2 -8
v -5.1 0.2 -8.3
v -4.9 0.1 -5.7
v -4.9 0.1 -6
v -4.9 0.2 -5.7
v -4.9 0.2 -6
v -4.8 0.1 -5.5
v -4.8 0.1 -5.7
v -4.8 0.2 -5.5
v -4.8 0.2 -5.7
v -4 0.1 -7.5
v -4 0.1 -7.7
v -4 0.2 -7.5
v -4 0.2 -7.7
v -3.9 0.1 -7.2
v -3.9 0.1 -7.5
v -3.9 0.2 -7.2
v -3.9 0.2 -7.5
v -3.5 0.1 -5.6
v -3.5 0.1 -5.9
v -3.5 0.2 -5.6
v -3.5 0.2 -5.9
v -3.4 0.1 -5.4
v -3.4 0.1 -5.6
v -3.4 0.2 -5.4
v -3.4 0.2 -5.6
v -6.1 0.1 -7.2
v -6.1 0.1 -7.5
v -6.1 0.2 -7.2
v -6.1 0.2 -7.5
v -6 0.1 -7.5
v -6 0.1 -7.7
v -6 0.2 -7.5
v -6 0.2 -7.7
v -5.1 0.1 -7.8
v -5.1 0.1 -8
v -5.1 0.2 -7.8
v -5.1 0.2 -8
v -5 0.1 -8
v -5 0.1 -8.3
v -5 0.2 -8
v -5 0.2 -8.3
v -4.8 0.1 -5.7
v -4.8 0.1 -6
v -4.8 0.2 -5.7
v -4.8 0.2 -6
v -4.7 0.1 -5.5
v -4.7 0.1 -5.7
v -4.7 0.2 -5.5
v -4.7 0.2 -5.7
v -3.9 0.1 -7.5
v -3.9 0.1 -7.7
v -3.9 0.2 -7.5
v -3.9 0.2 -7.7
v -3.8 0.1 -7.2
v -3.8 0.1 -7.5
v -3.8 0.2 -7.2
v -3.8 0.2 -7.5
v -3.4 0.1 -5.6
v -3.4 0.1 -5.9
v -3.4 0.2 -5.6
v -3.4 0.2 -5.9
v -3.3 0.1 -5.4
v -3.3 0.1 -5.6
v -3.3 0.2 -5.4
v -3.3 0.2 -5.6
v -2.8 0 -4.9
v -2.8 0 -8.9
v -2.8 0.1 -4.9
v -2.8 0.1 -8.9
v -6.8 0 -4.9
v -6.8 0.1 -4.9
v -2.8 0 -4.9
v -2.8 0.1 -4.9
v -3.4 0.1 -5.4
v -3.4 0.2 -5.4
v -3.3 0.1 -5.4
v -3.3 0.2 -5.4
v -4.8 0.1 -5.5
v -4.8 0.2 -5.5
v -4.7 0.1 -5.5
v -4.7 0.2 -5.5
v -3.5 0.1 -5.6
v -3.5 0.2 -5.6
v -3.4 0.1 -5.6
v -3.4 0.2 -5.6
v -4.9 0.1 -5.7
v -4.9 0.2 -5.7
v -4.8 0.1 -5.7
v -4.8 0.2 -5.7
v -6.2 0.1 -7.2
v -6.2 0.2 -7.2
v -6.1 0.1 -7.2
v -6.1 0.2 -7.2
v -3.9 0.1 -7.2
v -3.9 0.2 -7.2
v -3.8 0.1 -7.2
v -3.8 0.2 -7.2
v -6.1 0.1 -7.5
v -6.1 0.2 -7.5
v -6 0.1 -7.5
v -6 0.2 -7.5
v -4 0.1 -7.5
v -4 0.2 -7.5
v -3.9 0.1 -7.5
v -3.9 0.2 -7.5
v -5.2 0.1 -7.8
v -5.2 0.2 -7.8
v -5.1 0.1 -7.8
v -5.1 0.2 -7.8
v -5.1 0.1 -8
v -5.1 0.2 -8
v -5 0.1 -8
v -5 0.2 -8
v -3.4 0.1 -5.6
v -3.4 0.2 -5.6
v -3.3 0.1 -5.6
v -3.3 0.2 -5.6
v -4.8 0.1 -5.7
v -4.8 0.2 -5.7
v -4.7 0.1 -5.7
v -4.7 0.2 -5.7
v -3.5 0.1 -5.9
v -3.5 0.2 -5.9
v -3.4 0.1 -5.9
v -3.4 0.2 -5.9
v -4.9 0.1 -6
v -4.9 0.2 -6
v -4.8 0.1 -6
v -4.8 0.2 -6
v -6.2 0.1 -7.5
v -6.2 0.2 -7.5
v -6.1 0.1 -7.5
v -6.1 0.2 -7.5
v -3.9 0.1 -7.5
v -3.9 0.2 -7.5
v -3.8 0.1 -7.5
v -3.8 0.2 -7.5
v -6.1 0.1 -7.7
v -6.1 0.2 -7.7
v -6 0.1 -7.7
v -6 0.2 -7.7
v -4 0.1 -7.7
v -4 0.2 -7.7
v -3.9 0.1 -7.7
v -3.9 0.2 -7.7
v -5.2 0.1 -8
v -5.2 0.2 -8
v -5.1 0.1 -8
v -5.1 0.2 -8
v -5.1 0.1 -8.3
v -5.1 0.2 -8.3
v -5 0.1 -8.3
v -5 0.2 -8.3
v -6.8 0 -8.9
v -6.8 0.1 -8.9
v -2.8 0 -8.9
v -2.8 0.1 -8.9
v -6.8 0 -4.9
v -2.8 0 -4.9
v -3.5 0 -5.4
v -3.4 0 -5.4
v -3.3 0 -5.4
v -3.2 0 -5.4
v -4.9 0 -5.5
v -4.8 0 -5.5
v -4.7 0 -5.5
v -4.6 0 -5.5
v -3.6 0 -5.6
v -3.5 0 -5.6
v -3.4 0 -5.6
v -3.3 0 -5.6
v -3.2 0 -5.6
v -5 0 -5.7
v -4.9 0 -5.7
v -4.8 0 -5.7
v -4.7 0 -5.7
v -4.6 0 -5.7
v -4 0 -5.8
v -3.9 0 -5.8
v -5.7 0 -5.9
v -5.6 0 -5.9
v -3.6 0 -5.9
v -3.5 0 -5.9
v -3.4 0 -5.9
v -3.3 0 -5.9
v -5.8 0 -6
v -5.7 0 -6
v -5 0 -6
v -4.9 0 -6
v -4.8 0 -6
v -4.7 0 -6
v -4.1 0 -6
v -4 0 -6
v -3.9 0 -6
v -4.9 0 -6.1
v -4.8 0 -6.1
v -4.1 0 -6.1
v -4 0 -6.1
v -5.9 0 -6.2
v -5.8 0 -6.2
v -5.7 0 -6.2
v -5.6 0 -6.2
v -5.8 0 -6.3
v -5.7 0 -6.3
v -5.9 0 -6.5
v -5.8 0 -6.5
v -6.3 0 -7.2
v -6.2 0 -7.2
v -6.1 0 -7.2
v -6 0 -7.2
v -4 0 -7.2
v -3.9 0 -7.2
v -3.8 0 -7.2
v -3.7 0 -7.2
v -6 0 -7.4
v -5.9 0 -7.4
v -6.3 0 -7.5
v -6.2 0 -7.5
v -6.1 0 -7.5
v -6 0 -7.5
v -4.1 0 -7.5
v -4 0 -7.5
v -3.9 0 -7.5
v -3.8 0 -7.5
v -3.7 0 -7.5
v -6.2 0 -7.7
v -6.1 0 -7.7
v -6 0 -7.7
v -5.9 0 -7.7
v -4.1 0 -7.7
v -4 0 -7.7
v -3.9 0 -7.7
v -3.8 0 -7.7
v -3.3 0 -7.7
v -3.2 0 -7.7
v -6.1 0 -7.8
v -6 0 -7.8
v -5.3 0 -7.8
v -5.2 0 -7.8
v -5.1 0 -7.8
v -5 0 -7.8
v -3.4 0 -7.9
v -3.3 0 -7.9
v -3.2 0 -7.9
v -5.3 0 -8
v -5.2 0 -8
v -5.1 0 -8
v -5 0 -8
v -4.9 0 -8
v -3.4 0 -8
v -3.3 0 -8
v -5.2 0 -8.3
v -5.1 0 -8.3
v -5 0 -8.3
v -4.9 0 -8.3
v -6.8 0 -8.9
v -2.8 0 -8.9
v -6.8 0.1 -4.9
v -2.8 0.1 -4.9
v -3.5 0.1 -5.4
v -3.4 0.1 -5.4
v -3.3 0.1 -5.4
v -3.2 0.1 -5.4
v -4.9 0.1 -5.5
v -4.8 0.1 -5.5
v -4.7 0.1 -5.5
v -4.6 0.1 -5.5
v -3.6 0.1 -5.6
v -3.5 0.1 -5.6
v -3.4 0.1 -5.6
v -3.3 0.1 -5.6
v -3.2 0.1 -5.6
v -5 0.1 -5.7
v -4.9 0.1 -5.7
v -4.8 0.1 -5.7
v -4.7 0.1 -5.7
v -4.6 0.1 -5.7
v -4 0.1 -5.8
v -3.9 0.1 -5.8
v -5.7 0.1 -5.9
v -5.6 0.1 -5.9
v -3.6 0.1 -5.9
v -3.5 0.1 -5.9
v -3.4 0.1 -5.9
v -3.3 0.1 -5.9
v -5.8 0.1 -6
v -5.7 0.1 -6
v -5 0.1 -6
v -4.9 0.1 -6
v -4.8 0.1 -6
v -4.7 0.1 -6
v -4.1 0.1 -6
v -4 0.1 -6
v -3.9 0.1 -6
v -4.9 0.1 -6.1
v -4.8 0.1 -6.1
v -4.1 0.1 -6.1
v -4 0.1 -6.1
v -5.9 0.1 -6.2
v -5.8 0.1 -6.2
v -5.7 0.1 -6.2
v -5.6 0.1 -6.2
v -5.8 0.1 -6.3
v -5.7 0.1 -6.3
v -5.9 0.1 -6.5
v -5.8 0.1 -6.5
v -6.3 0.1 -7.2
v -6.2 0.1 -7.2
v -6.1 0.1 -7.2
v -6 0.1 -7.2
v -4 0.1 -7.2
v -3.9 0.1 -7.2
v -3.8 0.1 -7.2
v -3.7 0.1 -7.2
v -6 0.1 -7.4
v -5.9 0.1 -7.4
v -6.3 0.1 -7.5
v -6.2 0.1 -7.5
v -6.1 0.1 -7.5
v -6 0.1 -7.5
v -4.1 0.1 -7.5
v -4 0.1 -7.5
v -3.9 0.1 -7.5
v -3.8 0.1 -7.5
v -3.7 0.1 -7.5
v -6.2 0.1 -7.7
v -6.1 0.1 -7.7
v -6 0.1 -7.7
v -5.9 0.1 -7.7
v -4.1 0.1 -7.7
v -4 0.1 -7.7
v -3.9 0.1 -7.7
v -3.8 0.1 -7.7
v -3.3 0.1 -7.7
v -3.2 0.1 -7.7
v -6.1 0.1 -7.8
v -6 0.1 -7.8
v -5.3 0.1 -7.8
v -5.2 0.1 -7.8
v -5.1 0.1 -7.8
v -5 0.1 -7.8
v -3.4 0.1 -7.9
v -3.3 0.1 -7.9
v -3.2 0.1 -7.9
v -5.3 0.1 -8
v -5.2 0.1 -8
v -5.1 0.1 -8
v -5 0.1 -8
v -4.9 0.1 -8
v -3.4 0.1 -8
v -3.3 0.1 -8
v -5.2 0.1 -8.3
v -5.1 0.1 -8.3
v -5 0.1 -8.3
v -4.9 0.1 -8.3
v -6.8 0.1 -8.9
v -2.8 0.1 -8.9
v -3.4 0.2 -5.4
v -3.3 0.2 -5.4
v -4.8 0.2 -5.5
v -4.7 0.2 -5.5
v -3.5 0.2 -5.6
v -3.4 0.2 -5.6
v -3.3 0.2 -5.6
v -4.9 0.2 -5.7
v -4.8 0.2 -5.7
v -4.7 0.2 -5.7
v -3.5 0.2 -5.9
v -3.4 0.2 -5.9
v -4.9 0.2 -6
v -4.8 0.2 -6
v -6.2 0.2 -7.2
v -6.1 0.2 -7.2
v -3.9 0.2 -7.2
v -3.8 0.2 -7.2
v -6.2 0.2 -7.5
v -6.1 0.2 -7.5
v -6 0.2 -7.5
v -4 0.2 -7.5
v -3.9 0.2 -7.5
v -3.8 0.2 -7.5
v -6.1 0.2 -7.7
v -6 0.2 -7.7
v -4 0.2 -7.7
v -3.9 0.2 -7.7
v -5.2 0.2 -7.8
v -5.1 0.2 -7.8
v -5.2 0.2 -8
v -5.1 0.2 -8
v -5 0.2 -8
v -5.1 0.2 -8.3
v -5 0.2 -8.3

# faces
f 3/1/1 2/1/1 1/1/1
f 4/1/1 2/1/1 3/1/1
f 7/2/1 6/2/1 5/2/1
f 8/2/1 6/2/1 7/2/1
f 11/2/1 10/2/1 9/2/1
f 12/2/1 10/2/1 11/2/1
f 15/2/1 14/2/1 13/2/1
f 16/2/1 14/2/1 15/2/1
f 19/2/1 18/2/1 17/2/1
f 20/2/1 18/2/1 19/2/1
f 23/2/1 22/2/1 21/2/1
f 24/2/1 22/2/1 23/2/1
f 27/2/1 26/2/1 25/2/1
f 28/2/1 26/2/1 27/2/1
f 31/2/1 30/2/1 29/2/1
f 32/2/1 30/2/1 31/2/1
f 35/2/1 34/2/1 33/2/1
f 36/2/1 34/2/1 35/2/1
f 39/2/1 38/2/1 37/2/1
f 40/2/1 38/2/1 39/2/1
f 43/2/1 42/2/1 41/2/1
f 44/2/1 42/2/1 43/2/1
f 45/2/2 46/2/2 47/2/2
f 47/2/2 46/2/2 48/2/2
f 49/2/2 50/2/2 51/2/2
f 51/2/2 50/2/2 52/2/2
f 53/2/2 54/2/2 55/2/2
f 55/2/2 54/2/2 56/2/2
f 57/2/2 58/2/2 59/2/2
f 59/2/2 58/2/2 60/2/2
f 61/2/2 62/2/2 63/2/2
f 63/2/2 62/2/2 64/2/2
f 65/2/2 66/2/2 67/2/2
f 67/2/2 66/2/2 68/2/2
f 69/2/2 70/2/2 71/2/2
f 71/2/2 70/2/2 72/2/2
f 73/2/2 74/2/2 75/2/2
f 75/2/2 74/2/2 76/2/2
f 77/2/2 78/2/2 79/2/2
f 79/2/2 78/2/2 80/2/2
f 81/2/2 82/2/2 83/2/2
f 83/2/2 82/2/2 84/2/2
f 85/1/2 86/1/2 87/1/2
f 87/1/2 86/1/2 88/1/2
f 91/1/3 90/1/3 89/1/3
f 92/1/3 90/1/3 91/1/3
f 95/2/3 94/2/3 93/2/3
f 96/2/3 94/2/3 95/2/3
f 99/2/3 98/2/3 97/2/3
f 100/2/3 98/2/3 99/2/3
f 103/2/3 102/2/3 101/2/3
f 104/2/3 102/2/3 103/2/3
f 107/2/3 106/2/3 105/2/3
f 108/2/3 106/2/3 107/2/3
f 111/2/3 110/2/3 109/2/3
f 112/2/3 110/2/3 111/2/3
f 115/2/3 114/2/3 113/2/3
f 116/2/3 114/2/3 115/2/3
f 119/2/3 118/2/3 117/2/3
f 120/2/3 118/2/3 119/2/3
f 123/2/3 122/2/3 121/2/3
f 124/2/3 122/2/3 123/2/3
f 127/2/3 126/2/3 125/2/3
f 128/2/3 126/2/3 127/2/3
f 131/2/3 130/2/3 129/2/3
f 132/2/3 130/2/3 131/2/3
f 133/2/4 134/2/4 135/2/4
f 135/2/4 134/2/4 136/2/4
f 137/2/4 138/2/4 139/2/4
f 139/2/4 138/2/4 140/2/4
f 141/2/4 142/2/4 143/2/4
f 143/2/4 142/2/4 144/2/4
f 145/2/4 146/2/4 147/2/4
f 147/2/4 146/2/4 148/2/4
f 149/2/4 150/2/4 151/2/4
f 151/2/4 150/2/4 152/2/4
f 153/2/4 154/2/4 155/2/4
f 155/2/4 154/2/4 156/2/4
f 157/2/4 158/2/4 159/2/4
f 159/2/4 158/2/4 160/2/4
f 161/2/4 162/2/4 163/2/4
f 163/2/4 162/2/4 164/2/4
f 165/2/4 166/2/4 167/2/4
f 167/2/4 166/2/4 168/2/4
f 169/2/4 170/2/4 171/2/4
f 171/2/4 170/2/4 172/2/4
f 173/1/4 174/1/4 175/1/4
f 175/1/4 174/1/4 176/1/4
f 179/1/5 178/1/5 177/1/5
f 180/1/5 178/1/5 179/1/5
f 181/1/5 178/1/5 180/1/5
f 182/1/5 178/1/5 181/1/5
f 183/1/5 179/1/5 177/1/5
f 184/1/5 179/1/5 183/1/5
f 185/1/5 179/1/5 184/1/5
f 186/1/5 179/1/5 185/1/5
f 187/1/5 179/1/5 186/1/5
f 188/2/5 180/2/5 179/2/5
f 188/1/5 179/1/5 187/1/5
f 189/1/5 181/1/5 180/1/5
f 189/2/5 180/2/5 188/2/5
f 190/2/5 182/2/5 181/2/5
f 190/1/5 181/1/5 189/1/5
f 191/1/5 178/1/5 182/1/5
f 191/2/5 182/2/5 190/2/5
f 192/1/5 183/1/5 177/1/5
f 193/2/5 184/2/5 183/2/5
f 193/1/5 183/1/5 192/1/5
f 194/1/5 185/1/5 184/1/5
f 194/2/5 184/2/5 193/2/5
f 195/2/5 186/2/5 185/2/5
f 195/1/5 185/1/5 194/1/5
f 196/1/5 187/1/5 186/1/5
f 196/2/5 186/2/5 195/2/5
f 197/1/5 196/1/5 195/1/5
f 197/1/5 187/1/5 196/1/5
f 198/1/5 187/1/5 197/1/5
f 199/1/5 192/1/5 177/1/5
f 200/1/5 192/1/5 199/1/5
f 201/2/5 188/2/5 187/2/5
f 201/1/5 187/1/5 198/1/5
f 202/1/5 189/1/5 188/1/5
f 202/2/5 188/2/5 201/2/5
f 203/2/5 190/2/5 189/2/5
f 203/1/5 189/1/5 202/1/5
f 204/1/5 191/1/5 190/1/5
f 204/2/5 190/2/5 203/2/5
f 205/1/5 199/1/5 177/1/5
f 206/2/5 200/2/5 199/2/5
f 206/1/5 199/1/5 205/1/5
f 207/1/5 192/1/5 200/1/5
f 207/2/5 193/2/5 192/2/5
f 208/1/5 194/1/5 193/1/5
f 208/2/5 193/2/5 207/2/5
f 209/2/5 195/2/5 194/2/5
f 209/1/5 194/1/5 208/1/5
f 210/1/5 197/1/5 195/1/5
f 210/2/5 195/2/5 209/2/5
f 211/1/5 197/1/5 210/1/5
f 212/2/5 198/2/5 197/2/5
f 212/1/5 197/1/5 211/1/5
f 213/1/5 202/1/5 201/1/5
f 213/2/5 198/2/5 212/2/5
f 213/1/5 201/1/5 198/1/5
f 213/1/5 203/1/5 202/1/5
f 213/1/5 204/1/5 203/1/5
f 214/1/5 208/1/5 207/1/5
f 214/2/5 209/2/5 208/2/5
f 215/1/5 210/1/5 209/1/5
f 215/2/5 209/2/5 214/2/5
f 215/1/5 211/1/5 210/1/5
f 216/2/5 212/2/5 211/2/5
f 216/1/5 211/1/5 215/1/5
f 217/1/5 213/1/5 212/1/5
f 217/2/5 212/2/5 216/2/5
f 218/1/5 205/1/5 177/1/5
f 219/2/5 206/2/5 205/2/5
f 219/1/5 205/1/5 218/1/5
f 220/2/5 200/2/5 206/2/5
f 220/2/5 206/2/5 219/2/5
f 221/1/5 215/1/5 214/1/5
f 221/2/5 200/2/5 220/2/5
f 221/1/5 214/1/5 207/1/5
f 221/1/5 217/1/5 216/1/5
f 221/1/5 216/1/5 215/1/5
f 221/1/5 207/1/5 200/1/5
f 222/2/5 220/2/5 219/2/5
f 222/2/5 219/2/5 218/2/5
f 223/1/5 221/1/5 220/1/5
f 223/2/5 220/2/5 222/2/5
f 224/2/5 222/2/5 218/2/5
f 224/1/5 218/1/5 177/1/5
f 225/1/5 223/1/5 222/1/5
f 225/2/5 222/2/5 224/2/5
f 226/1/5 224/1/5 177/1/5
f 226/1/5 225/1/5 224/1/5
f 227/1/5 225/1/5 226/1/5
f 228/1/5 225/1/5 227/1/5
f 229/1/5 225/1/5 228/1/5
f 230/1/5 217/1/5 221/1/5
f 230/1/5 225/1/5 229/1/5
f 230/1/5 221/1/5 223/1/5
f 230/1/5 213/1/5 217/1/5
f 230/1/5 223/1/5 225/1/5
f 231/1/5 204/1/5 213/1/5
f 231/1/5 213/1/5 230/1/5
f 232/1/5 204/1/5 231/1/5
f 233/1/5 204/1/5 232/1/5
f 234/2/5 229/2/5 228/2/5
f 234/1/5 230/1/5 229/1/5
f 235/1/5 230/1/5 234/1/5
f 236/2/5 227/2/5 226/2/5
f 236/1/5 226/1/5 177/1/5
f 237/1/5 228/1/5 227/1/5
f 237/2/5 227/2/5 236/2/5
f 238/2/5 235/2/5 234/2/5
f 238/1/5 228/1/5 237/1/5
f 238/2/5 234/2/5 228/2/5
f 239/2/5 235/2/5 238/2/5
f 240/1/5 230/1/5 235/1/5
f 241/2/5 231/2/5 230/2/5
f 241/1/5 230/1/5 240/1/5
f 242/1/5 232/1/5 231/1/5
f 242/2/5 231/2/5 241/2/5
f 243/2/5 233/2/5 232/2/5
f 243/1/5 232/1/5 242/1/5
f 244/1/5 204/1/5 233/1/5
f 244/2/5 233/2/5 243/2/5
f 245/1/5 237/1/5 236/1/5
f 245/2/5 238/2/5 237/2/5
f 246/1/5 239/1/5 238/1/5
f 246/2/5 238/2/5 245/2/5
f 247/2/5 235/2/5 239/2/5
f 247/1/5 239/1/5 246/1/5
f 248/1/5 240/1/5 235/1/5
f 248/2/5 235/2/5 247/2/5
f 249/2/5 241/2/5 240/2/5
f 249/1/5 240/1/5 248/1/5
f 250/1/5 242/1/5 241/1/5
f 250/2/5 241/2/5 249/2/5
f 251/2/5 243/2/5 242/2/5
f 251/1/5 242/1/5 250/1/5
f 252/1/5 244/1/5 243/1/5
f 252/2/5 243/2/5 251/2/5
f 253/1/5 191/1/5 204/1/5
f 253/1/5 244/1/5 252/1/5
f 253/1/5 204/1/5 244/1/5
f 254/1/5 178/1/5 191/1/5
f 254/1/5 191/1/5 253/1/5
f 255/1/5 246/1/5 245/1/5
f 255/2/5 247/2/5 246/2/5
f 256/1/5 250/1/5 249/1/5
f 256/2/5 247/2/5 255/2/5
f 256/1/5 249/1/5 248/1/5
f 256/1/5 251/1/5 250/1/5
f 256/1/5 248/1/5 247/1/5
f 256/1/5 252/1/5 251/1/5
f 256/1/5 253/1/5 252/1/5
f 257/1/5 253/1/5 256/1/5
f 258/1/5 253/1/5 257/1/5
f 259/1/5 253/1/5 258/1/5
f 260/1/5 253/1/5 259/1/5
f 261/1/5 253/1/5 260/1/5
f 262/2/5 254/2/5 253/2/5
f 262/1/5 253/1/5 261/1/5
f 263/1/5 178/1/5 254/1/5
f 263/2/5 254/2/5 262/2/5
f 264/1/5 256/1/5 255/1/5
f 264/1/5 257/1/5 256/1/5
f 264/2/5 258/2/5 257/2/5
f 265/1/5 259/1/5 258/1/5
f 265/2/5 258/2/5 264/2/5
f 266/2/5 260/2/5 259/2/5
f 266/1/5 259/1/5 265/1/5
f 267/1/5 261/1/5 260/1/5
f 267/2/5 260/2/5 266/2/5
f 268/1/5 261/1/5 267/1/5
f 269/2/5 262/2/5 261/2/5
f 269/1/5 261/1/5 268/1/5
f 270/1/5 263/1/5 262/1/5
f 270/2/5 262/2/5 269/2/5
f 271/2/5 266/2/5 265/2/5
f 271/1/5 265/1/5 264/1/5
f 272/1/5 267/1/5 266/1/5
f 272/2/5 266/2/5 271/2/5
f 273/2/5 268/2/5 267/2/5
f 273/1/5 267/1/5 272/1/5
f 274/1/5 269/1/5 268/1/5
f 274/2/5 268/2/5 273/2/5
f 274/1/5 270/1/5 269/1/5
f 275/1/5 255/1/5 245/1/5
f 275/1/5 236/1/5 177/1/5
f 275/1/5 274/1/5 273/1/5
f 275/1/5 264/1/5 255/1/5
f 275/1/5 271/1/5 264/1/5
f 275/1/5 273/1/5 272/1/5
f 275/1/5 245/1/5 236/1/5
f 275/1/5 272/1/5 271/1/5
f 276/1/5 270/1/5 274/1/5
f 276/1/5 274/1/5 275/1/5
f 276/1/5 263/1/5 270/1/5
f 276/1/5 178/1/5 263/1/5
f 277/1/6 278/1/6 279/1/6
f 279/1/6 278/1/6 280/1/6
f 280/1/6 278/1/6 281/1/6
f 281/1/6 278/1/6 282/1/6
f 277/1/6 279/1/6 283/1/6
f 283/1/6 279/1/6 284/1/6
f 284/1/6 279/1/6 285/1/6
f 285/1/6 279/1/6 286/1/6
f 286/1/6 279/1/6 287/1/6
f 279/2/6 280/2/6 288/2/6
f 287/1/6 279/1/6 288/1/6
f 288/2/6 280/2/6 289/2/6
f 281/2/6 282/2/6 290/2/6
f 282/1/6 278/1/6 291/1/6
f 290/2/6 282/2/6 291/2/6
f 277/1/6 283/1/6 292/1/6
f 283/2/6 284/2/6 293/2/6
f 292/1/6 283/1/6 293/1/6
f 293/2/6 284/2/6 294/2/6
f 285/2/6 286/2/6 295/2/6
f 286/1/6 287/1/6 296/1/6
f 295/2/6 286/2/6 296/2/6
f 296/1/6 287/1/6 297/1/6
f 295/1/6 296/1/6 297/1/6
f 297/1/6 287/1/6 298/1/6
f 277/1/6 292/1/6 299/1/6
f 299/1/6 292/1/6 300/1/6
f 298/1/6 287/1/6 301/1/6
f 287/2/6 288/2/6 301/2/6
f 301/2/6 288/2/6 302/2/6
f 289/2/6 290/2/6 303/2/6
f 290/1/6 291/1/6 304/1/6
f 303/2/6 290/2/6 304/2/6
f 277/1/6 299/1/6 305/1/6
f 299/2/6 300/2/6 306/2/6
f 305/1/6 299/1/6 306/1/6
f 300/1/6 292/1/6 307/1/6
f 292/2/6 293/2/6 307/2/6
f 307/2/6 293/2/6 308/2/6
f 294/2/6 295/2/6 309/2/6
f 295/1/6 297/1/6 310/1/6
f 309/2/6 295/2/6 310/2/6
f 310/1/6 297/1/6 311/1/6
f 297/2/6 298/2/6 312/2/6
f 311/1/6 297/1/6 312/1/6
f 301/1/6 302/1/6 313/1/6
f 312/2/6 298/2/6 313/2/6
f 302/1/6 303/1/6 313/1/6
f 298/1/6 301/1/6 313/1/6
f 303/1/6 304/1/6 313/1/6
f 307/1/6 308/1/6 314/1/6
f 308/2/6 309/2/6 314/2/6
f 309/1/6 310/1/6 315/1/6
f 314/2/6 309/2/6 315/2/6
f 310/1/6 311/1/6 315/1/6
f 311/2/6 312/2/6 316/2/6
f 315/1/6 311/1/6 316/1/6
f 312/1/6 313/1/6 317/1/6
f 316/2/6 312/2/6 317/2/6
f 277/1/6 305/1/6 318/1/6
f 305/2/6 306/2/6 319/2/6
f 318/1/6 305/1/6 319/1/6
f 306/2/6 300/2/6 320/2/6
f 319/2/6 306/2/6 320/2/6
f 314/1/6 315/1/6 321/1/6
f 320/2/6 300/2/6 321/2/6
f 307/1/6 314/1/6 321/1/6
f 316/1/6 317/1/6 321/1/6
f 315/1/6 316/1/6 321/1/6
f 300/1/6 307/1/6 321/1/6
f 319/2/6 320/2/6 322/2/6
f 318/2/6 319/2/6 322/2/6
f 320/1/6 321/1/6 323/1/6
f 322/2/6 320/2/6 323/2/6
f 318/2/6 322/2/6 324/2/6
f 277/1/6 318/1/6 324/1/6
f 322/1/6 323/1/6 325/1/6
f 324/2/6 322/2/6 325/2/6
f 277/1/6 324/1/6 326/1/6
f 324/1/6 325/1/6 326/1/6
f 326/1/6 325/1/6 327/1/6
f 327/1/6 325/1/6 328/1/6
f 328/1/6 325/1/6 329/1/6
f 321/1/6 317/1/6 330/1/6
f 329/1/6 325/1/6 330/1/6
f 323/1/6 321/1/6 330/1/6
f 317/1/6 313/1/6 330/1/6
f 325/1/6 323/1/6 330/1/6
f 313/1/6 304/1/6 331/1/6
f 330/1/6 313/1/6 331/1/6
f 331/1/6 304/1/6 332/1/6
f 332/1/6 304/1/6 333/1/6
f 328/2/6 329/2/6 334/2/6
f 329/1/6 330/1/6 334/1/6
f 334/1/6 330/1/6 335/1/6
f 326/2/6 327/2/6 336/2/6
f 277/1/6 326/1/6 336/1/6
f 336/2/6 327/2/6 337/2/6
f 334/2/6 335/2/6 338/2/6
f 328/2/6 334/2/6 338/2/6
f 338/2/6 335/2/6 339/2/6
f 335/1/6 330/1/6 340/1/6
f 330/2/6 331/2/6 341/2/6
f 340/1/6 330/1/6 341/1/6
f 341/2/6 331/2/6 342/2/6
f 332/2/6 333/2/6 343/2/6
f 333/1/6 304/1/6 344/1/6
f 343/2/6 333/2/6 344/2/6
f 336/1/6 337/1/6 345/1/6
f 337/2/6 338/2/6 345/2/6
f 345/2/6 338/2/6 346/2/6
f 339/2/6 335/2/6 347/2/6
f 335/1/6 340/1/6 348/1/6
f 347/2/6 335/2/6 348/2/6
f 340/2/6 341/2/6 349/2/6
f 348/1/6 340/1/6 349/1/6
f 349/2/6 341/2/6 350/2/6
f 342/2/6 343/2/6 351/2/6
f 343/1/6 344/1/6 352/1/6
f 351/2/6 343/2/6 352/2/6
f 344/1/6 304/1/6 353/1/6
f 352/1/6 344/1/6 353/1/6
f 304/1/6 291/1/6 353/1/6
f 291/1/6 278/1/6 354/1/6
f 353/1/6 291/1/6 354/1/6
f 346/2/6 347/2/6 355/2/6
f 345/1/6 346/1/6 355/1/6
f 349/1/6 350/1/6 356/1/6
f 355/2/6 347/2/6 356/2/6
f 351/1/6 352/1/6 356/1/6
f 348/1/6 349/1/6 356/1/6
f 352/1/6 353/1/6 356/1/6
f 350/1/6 351/1/6 356/1/6
f 347/1/6 348/1/6 356/1/6
f 356/1/6 353/1/6 357/1/6
f 357/1/6 353/1/6 358/1/6
f 358/1/6 353/1/6 359/1/6
f 359/1/6 353/1/6 360/1/6
f 360/1/6 353/1/6 361/1/6
f 353/2/6 354/2/6 362/2/6
f 361/1/6 353/1/6 362/1/6
f 354/1/6 278/1/6 363/1/6
f 362/2/6 354/2/6 363/2/6
f 355/1/6 356/1/6 364/1/6
f 356/1/6 357/1/6 364/1/6
f 357/2/6 358/2/6 364/2/6
f 364/2/6 358/2/6 365/2/6
f 359/2/6 360/2/6 366/2/6
f 360/1/6 361/1/6 367/1/6
f 366/2/6 360/2/6 367/2/6
f 367/1/6 361/1/6 368/1/6
f 361/2/6 362/2/6 369/2/6
f 368/1/6 361/1/6 369/1/6
f 362/1/6 363/1/6 370/1/6
f 369/2/6 362/2/6 370/2/6
f 365/2/6 366/2/6 371/2/6
f 364/1/6 365/1/6 371/1/6
f 371/2/6 366/2/6 372/2/6
f 367/2/6 368/2/6 373/2/6
f 368/1/6 369/1/6 374/1/6
f 369/1/6 370/1/6 374/1/6
f 373/2/6 368/2/6 374/2/6
f 345/1/6 355/1/6 375/1/6
f 336/1/6 345/1/6 375/1/6
f 373/1/6 374/1/6 375/1/6
f 364/1/6 371/1/6 375/1/6
f 371/1/6 372/1/6 375/1/6
f 355/1/6 364/1/6 375/1/6
f 277/1/6 336/1/6 375/1/6
f 372/1/6 373/1/6 375/1/6
f 374/1/6 370/1/6 376/1/6
f 375/1/6 374/1/6 376/1/6
f 370/1/6 363/1/6 376/1/6
f 363/1/6 278/1/6 376/1/6
f 377/2/6 378/2/6 382/2/6
f 382/2/6 378/2/6 383/2/6
f 379/2/6 380/2/6 385/2/6
f 385/2/6 380/2/6 386/2/6
f 381/2/6 382/2/6 387/2/6
f 387/2/6 382/2/6 388/2/6
f 384/2/6 385/2/6 389/2/6
f 389/2/6 385/2/6 390/2/6
f 391/2/6 392/2/6 395/2/6
f 395/2/6 392/2/6 396/2/6
f 393/2/6 394/2/6 399/2/6
f 399/2/6 394/2/6 400/2/6
f 396/2/6 397/2/6 401/2/6
f 401/2/6 397/2/6 402/2/6
f 398/2/6 399/2/6 403/2/6
f 403/2/6 399/2/6 404/2/6
f 405/2/6 406/2/6 407/2/6
f 407/2/6 406/2/6 408/2/6
f 408/2/6 409/2/6 410/2/6
f 410/2/6 409/2/6 411/2/6
